<svg xmlns="http://www.w3.org/2000/svg" viewBox="0 0 128 128"><defs><style>.cls-1{fill:#1d1d1b;}</style></defs><title>Untitled-1</title><g id="_2" data-name="2"><path class="cls-1" d="M122.87,37.88a8.32,8.32,0,0,0-6.55-3.16H90.54c.06-.63.09-1.26.09-1.88C90.63,20,78.69,9.5,64,9.5S37.37,20,37.37,32.84c0,.62,0,1.25.09,1.88H11.68A8.34,8.34,0,0,0,3.55,45L20,114.52a7.52,7.52,0,0,0,7.35,5.81h73.3a7.52,7.52,0,0,0,7.35-5.81L124.45,45h0A8.33,8.33,0,0,0,122.87,37.88Zm-78.67-5c0-9.1,8.88-16.5,19.8-16.5s19.8,7.4,19.8,16.5a14.85,14.85,0,0,1-.13,1.88H44.33A14.85,14.85,0,0,1,44.2,32.84ZM24,101.49h80.1l-1,4H24.9Zm76.7,12H27.35a.7.7,0,0,1-.69-.55l-1.35-5.71h77.38l-1.35,5.71A.7.7,0,0,1,100.65,113.49Zm17.14-70.08h0l-12.52,53H22.73L10.21,43.41a1.51,1.51,0,0,1,1.47-1.86H116.32a1.51,1.51,0,0,1,1.47,1.86Z"/></g></svg>